<svg width="25" height="24" viewBox="0 0 25 24" fill="none" xmlns="http://www.w3.org/2000/svg">
<path d="M10.6662 16.7299C10.5349 16.7302 10.4049 16.7045 10.2835 16.6544C10.1622 16.6043 10.052 16.5307 9.95916 16.4379L5.71716 12.1949C5.62159 12.1027 5.54533 11.9924 5.49284 11.8705C5.44035 11.7485 5.41267 11.6173 5.41142 11.4845C5.41017 11.3517 5.43538 11.22 5.48558 11.0971C5.53577 10.9742 5.60994 10.8625 5.70377 10.7685C5.7976 10.6746 5.90919 10.6002 6.03205 10.5499C6.15491 10.4995 6.28657 10.4741 6.41935 10.4752C6.55213 10.4762 6.68337 10.5037 6.80541 10.556C6.92745 10.6083 7.03785 10.6845 7.13016 10.7799L10.6652 14.3149L17.0302 7.95189C17.2177 7.76425 17.472 7.65879 17.7373 7.65869C18.0026 7.6586 18.257 7.76389 18.4447 7.95139C18.6323 8.1389 18.7378 8.39327 18.7379 8.65854C18.738 8.92381 18.6327 9.17825 18.4452 9.36589L11.3732 16.4379C11.2803 16.5307 11.1701 16.6043 11.0488 16.6544C10.9275 16.7045 10.7974 16.7302 10.6662 16.7299Z" fill="#2FAB73"/>
</svg>
