<svg width="32" height="32" viewBox="0 0 32 32" fill="none" xmlns="http://www.w3.org/2000/svg">
<path fill-rule="evenodd" clip-rule="evenodd" d="M15.6081 31.6371C24.1849 31.6371 31.1375 24.6117 31.1375 15.9454C31.1375 7.27909 24.1849 0.253662 15.6081 0.253662C7.03148 0.253662 0.0787354 7.27909 0.0787354 15.9454C0.0787354 24.6117 7.03148 31.6371 15.6081 31.6371ZM18.0051 12.3775C19.3288 11.0399 19.3288 8.87122 18.0051 7.53358C16.6813 6.19595 14.535 6.19595 13.2112 7.53358C11.8875 8.87122 11.8875 11.0399 13.2112 12.3775L15.6081 14.7995L18.0051 12.3775ZM19.1391 18.3674C20.4629 19.705 22.6092 19.705 23.933 18.3674C25.2567 17.0297 25.2567 14.8611 23.933 13.5234C22.6092 12.1859 20.4629 12.1859 19.1391 13.5234L16.7422 15.9454L19.1391 18.3674ZM18.0051 24.3572C19.3288 23.0196 19.3288 20.8509 18.0051 19.5133L15.6081 17.0913L13.2112 19.5133C11.8875 20.8509 11.8875 23.0196 13.2112 24.3572C14.535 25.6949 16.6813 25.6949 18.0051 24.3572ZM7.28332 18.3674C5.95956 17.0297 5.95956 14.8611 7.28332 13.5234C8.60715 12.1859 10.7534 12.1859 12.0772 13.5234L14.4741 15.9454L12.0772 18.3674C10.7534 19.705 8.60715 19.705 7.28332 18.3674Z" fill="#2161D5"/>
</svg>
